<?xml version="1.0" encoding="UTF-8"?>
<svg version="1.1" xmlns="http://www.w3.org/2000/svg" width="1024" height="1024">
<path d="M0 0 C337.92 0 675.84 0 1024 0 C1024 337.92 1024 675.84 1024 1024 C686.08 1024 348.16 1024 0 1024 C0 686.08 0 348.16 0 0 Z " fill="#238251" transform="translate(0,0)"/>
<path d="M0 0 C337.92 0 675.84 0 1024 0 C1024 337.92 1024 675.84 1024 1024 C686.08 1024 348.16 1024 0 1024 C0 686.08 0 348.16 0 0 Z M260 165 C258.96488281 165.75410156 257.92976562 166.50820312 256.86328125 167.28515625 C253.88428617 169.49311731 250.93762722 171.73733673 248 174 C247.44602539 174.42249023 246.89205078 174.84498047 246.32128906 175.28027344 C238.8666107 180.97210538 231.75093077 186.87376533 224.9140625 193.296875 C222.70950408 195.34185413 220.48338915 197.31940556 218.20703125 199.28125 C213.64356536 203.25783044 209.33923434 207.46870868 205.0625 211.75 C203.8712854 212.9424231 203.8712854 212.9424231 202.65600586 214.15893555 C197.82200968 219.04362234 193.27984845 223.97084956 189.05078125 229.390625 C187.14554767 231.81480792 185.1575446 234.14486855 183.13232422 236.46899414 C168.13796969 253.75407927 155.4601914 273.22969553 144 293 C143.61908203 293.65210449 143.23816406 294.30420898 142.84570312 294.97607422 C130.61552785 316.02276104 120.23851023 338.09762148 112 361 C111.4438501 362.53696533 111.4438501 362.53696533 110.87646484 364.10498047 C94.54810324 409.75064748 86.37718307 457.22591325 86.60888672 505.6965332 C86.62234798 509.03064247 86.61574233 512.36335728 86.59857273 515.6973505 C86.49690473 538.99071895 88.46726218 561.80228701 92.8125 584.6875 C92.94138611 585.37468109 93.07027222 586.06186218 93.20306396 586.76986694 C100.01801336 623.00707963 111.42703869 657.60183152 127 691 C127.44053711 691.94746094 127.88107422 692.89492188 128.33496094 693.87109375 C141.29505715 721.43026789 158.0837751 747.18172434 177 771 C177.80050781 772.01449219 178.60101563 773.02898438 179.42578125 774.07421875 C184.15886872 779.9674591 189.17112689 785.55909687 194.3125 791.09375 C196.74269514 793.72175172 199.12629196 796.38360092 201.5 799.0625 C208.13874761 806.44944278 215.10609544 813.56850404 222.671875 820.01171875 C224.55558145 821.62045463 226.41398214 823.24938545 228.265625 824.89453125 C237.16560168 832.76763336 246.36550665 840.04880227 256 847 C257.15459717 847.83748779 257.15459717 847.83748779 258.33251953 848.69189453 C317.28784373 891.28857261 385.81635675 918.67437101 457.875 928.25 C459.08502686 928.41330811 460.29505371 928.57661621 461.54174805 928.74487305 C478.65201977 930.9001633 495.89647263 931.23811784 513.125 931.25 C514.02431244 931.25067474 514.92362488 931.25134949 515.85018921 931.25204468 C543.63350064 931.21938105 570.73950704 928.50452262 598 923 C599.09183594 922.77973145 600.18367187 922.55946289 601.30859375 922.33251953 C660.51797529 910.09792794 717.26599265 884.72287427 766 849 C766.57073242 848.58234375 767.14146484 848.1646875 767.72949219 847.734375 C791.16723249 830.5159516 814.11234646 811.20940856 833 789 C833.84691406 788.04222656 834.69382812 787.08445312 835.56640625 786.09765625 C855.20763412 763.7864542 871.77567832 739.05899517 886 713 C886.49209961 712.10619629 886.98419922 711.21239258 887.49121094 710.29150391 C930.06140131 632.5600535 947.05360409 539.63966097 923.06298828 393.61669922 C916.76263321 372.18044291 909.23803983 351.35890597 900 331 C899.57332031 330.05705078 899.14664063 329.11410156 898.70703125 328.14257812 C880.51935291 288.26959101 855.64745136 252.20403945 826 220 C825.43200684 219.38157227 824.86401367 218.76314453 824.27880859 218.12597656 C822.33711212 216.01641729 820.38828279 213.91365764 818.4375 211.8125 C817.51759277 210.81416138 817.51759277 210.81416138 816.57910156 209.7956543 C812.87414557 205.82669305 809.02181297 202.17413431 804.8996582 198.64135742 C802.66872261 196.71376714 800.52898737 194.70452983 798.38818359 192.67822266 C791.27593299 185.96530461 783.79887675 179.89192932 776 174 C775.28569824 173.45585449 774.57139648 172.91170898 773.83544922 172.35107422 C712.70157583 125.90086761 639.19865417 97.50515389 563 89 C562.32309113 88.91915161 561.64618225 88.83830322 560.94876099 88.75500488 C544.99221476 86.87552073 529.11745606 86.5988794 513.0625 86.625 C511.74362793 86.62587616 510.42475586 86.62675232 509.06591797 86.62765503 C420.695354 86.77106342 331.83612141 112.51669631 260 165 Z " fill="#F5F5F5" transform="translate(0,0)"/>
<path d="M0 0 C66.0515625 -0.12375 66.0515625 -0.12375 133.4375 -0.25 C154.23994751 -0.30462402 154.23994751 -0.30462402 175.46264648 -0.36035156 C192.48840332 -0.37841797 192.48840332 -0.37841797 200.47645569 -0.3817749 C206.01709405 -0.38547899 211.55756787 -0.40003957 217.09815979 -0.42230225 C223.51044867 -0.44802873 229.92258186 -0.45928299 236.33492256 -0.4537798 C239.60492922 -0.45140242 242.87452548 -0.45710859 246.14448249 -0.47686052 C267.37496152 -0.59900982 287.95061425 1.64032455 308.5 7.125 C310.1538269 7.56114624 310.1538269 7.56114624 311.84106445 8.00610352 C329.61690411 12.89594675 346.83883058 20.13621052 363 29 C363.99507568 29.53995605 363.99507568 29.53995605 365.01025391 30.09082031 C381.43838999 39.09667573 396.42542648 50.10066255 410 63 C411.36868963 64.19476774 412.74329976 65.38280272 414.125 66.5625 C422.28092949 73.68855652 429.29963533 81.50530038 436 90 C436.78117187 90.96421875 437.56234375 91.9284375 438.3671875 92.921875 C469.19909801 131.73265053 489.1048723 183.36246962 489.16796875 233.22265625 C489.17129715 234.16701035 489.17462555 235.11136444 489.17805481 236.08433533 C489.1830842 238.07176228 489.18546438 240.05919755 489.18530273 242.04663086 C489.18747675 245.03058412 489.20564138 248.01415936 489.22460938 250.99804688 C489.25841327 262.49776104 488.69556778 273.61836095 487 285 C486.89500687 285.70643143 486.79001373 286.41286285 486.68183899 287.14070129 C477.72016844 346.78149633 445.16752074 406.2445884 396.3984375 442.5 C395.83866211 442.90992188 395.27888672 443.31984375 394.70214844 443.7421875 C392.95886801 445.03039472 391.24832302 446.35456407 389.5390625 447.6875 C341.68368213 484.53817594 283.8953717 496.22323324 224.84375 496.09765625 C222.24344917 496.09578759 219.64314799 496.09436581 217.04284668 496.09336853 C210.94119868 496.0899642 204.83957183 496.08211467 198.73793173 496.07201904 C191.78001729 496.06076161 184.82210188 496.05532342 177.86418056 496.05032361 C163.5761106 496.03992875 149.28805596 496.02238997 135 496 C143.37807153 470.56341192 152.08395269 445.25285477 161 420 C162.05583786 419.99413376 163.11167572 419.98826752 164.19950867 419.98222351 C174.24423544 419.92452835 184.28875537 419.85153223 194.33327007 419.76428509 C199.49486867 419.71992323 204.65639448 419.68059619 209.81811523 419.65356445 C214.81741902 419.62718485 219.81643733 419.58655061 224.81556129 419.53681374 C226.70448006 419.52037545 228.59344792 419.50872022 230.4824276 419.50238609 C277.19659379 419.33020047 320.8943658 404.74819602 355 372 C355.89074219 371.16082031 356.78148437 370.32164062 357.69921875 369.45703125 C388.74200169 339.45333728 406.22051479 295.1623717 407.18359375 252.3203125 C407.80822413 206.24993762 395.12202665 161.61665779 362.6875 127.75390625 C361.800625 126.84511719 360.91375 125.93632812 360 125 C358.7625 123.65228516 358.7625 123.65228516 357.5 122.27734375 C337.47994112 101.06706796 310.79179506 88.50191081 282.9375 81.25 C281.80622681 80.95150146 281.80622681 80.95150146 280.65209961 80.64697266 C215.36359208 64.58507607 146.23415103 76.37771995 79 76 C79 214.6 79 353.2 79 496 C52.93 496 26.86 496 0 496 C0 332.32 0 168.64 0 0 Z " fill="#F9F9F9" transform="translate(279,259)"/>
<path d="M0 0 C2.94508008 6.90308779 5.2150434 13.79200395 7.0625 21.0625 C7.31999023 22.06982178 7.57748047 23.07714355 7.84277344 24.11499023 C21.28815282 77.73035764 18.9724543 141.13540646 -9.52050781 189.61181641 C-15.8977212 199.90585954 -23.64774352 209.25546533 -32 218 C-32.54527344 218.59683594 -33.09054687 219.19367188 -33.65234375 219.80859375 C-60.28589076 248.00498948 -103.69105457 262.3826981 -141 268 C-140.42027777 263.39628087 -139.56827761 259.07997339 -138.25 254.6328125 C-137.89381592 253.43060059 -137.53763184 252.22838867 -137.1706543 250.98974609 C-136.78135084 249.7012207 -136.39110895 248.41297852 -136 247.125 C-135.7999234 246.46316711 -135.5998468 245.80133423 -135.39370728 245.1194458 C-120.49685293 195.99467247 -98.8821959 150.13528979 -68 109 C-67.43812988 108.24976563 -66.87625977 107.49953125 -66.29736328 106.7265625 C-64.8662309 104.81671069 -63.43376247 102.90787769 -62 101 C-65.11861466 102.55930733 -67.71365843 104.84394106 -70.4375 107 C-71.06712646 107.49765869 -71.69675293 107.99531738 -72.34545898 108.50805664 C-74.23245073 110.00269174 -76.11646335 111.5010145 -78 113 C-78.96164062 113.76183594 -79.92328125 114.52367187 -80.9140625 115.30859375 C-97.63811347 128.75196805 -112.12844939 143.85243241 -125 161 C-125.50644043 161.6712793 -126.01288086 162.34255859 -126.53466797 163.03417969 C-139.92994539 180.8863038 -151.19177368 199.84114603 -161.67480469 219.52148438 C-162.886572 221.78785536 -164.114603 224.0441835 -165.3515625 226.296875 C-169.39118312 233.68768033 -172.95615903 241.1416221 -176 249 C-176.66 249 -177.32 249 -178 249 C-193.96564038 218.13837753 -201.80871651 186.80970113 -191.28466797 152.68017578 C-183.4640108 129.2383736 -170.19701873 109.38848294 -154 91 C-153.56123535 90.49807129 -153.1224707 89.99614258 -152.67041016 89.47900391 C-148.05915291 84.22006914 -143.39163228 79.22154852 -138.03125 74.72265625 C-135.78697288 72.81933661 -133.65298903 70.81836812 -131.5 68.8125 C-119.68788098 58.19060977 -106.47774342 49.34796834 -93 41 C-92.33452148 40.58540527 -91.66904297 40.17081055 -90.98339844 39.74365234 C-26.74455014 0 -26.74455014 0 0 0 Z " fill="#F9F9F9" transform="translate(592,389)"/>
<path d="M0 0 C0.33 0.66 0.66 1.32 1 2 C0.29875 2.66 -0.4025 3.32 -1.125 4 C-4.49416695 7.34985941 -7.22468725 11.15652564 -10 15 C-10.99 14.01 -11.98 13.02 -13 12 C-11.47236536 7.91403748 -8.88915809 6.20173821 -5.375 3.75 C-4.37210938 3.04359375 -3.36921875 2.3371875 -2.3359375 1.609375 C-1.56507813 1.07828125 -0.79421875 0.5471875 0 0 Z " fill="#18733D" transform="translate(531,488)"/>
<path d="M0 0 C3.39813323 6.79626646 0.17284407 13.08516289 -2 20 C-2.66 19.67 -3.32 19.34 -4 19 C-2.02 9.595 -2.02 9.595 0 0 Z " fill="#E6EFEB" transform="translate(927,601)"/>
<path d="M0 0 C1.37245106 2.74490212 0.93580311 4.12060581 0 7 C-2 8.125 -2 8.125 -4 9 C-4.33 9.99 -4.66 10.98 -5 12 C-5.33 11.34 -5.66 10.68 -6 10 C-4.78515625 7.6171875 -4.78515625 7.6171875 -3.0625 4.875 C-2.21365234 3.50988281 -2.21365234 3.50988281 -1.34765625 2.1171875 C-0.90292969 1.41851562 -0.45820313 0.71984375 0 0 Z " fill="#15753D" transform="translate(146,290)"/>
<path d="M0 0 C1.74965358 -0.05429959 3.49979787 -0.09292823 5.25 -0.125 C6.22453125 -0.14820312 7.1990625 -0.17140625 8.203125 -0.1953125 C11.0196498 0.00137219 12.60949036 0.55431084 15 2 C14 3 14 3 10.9375 3.0625 C9.968125 3.041875 8.99875 3.02125 8 3 C8 2.34 8 1.68 8 1 C5.36 1 2.72 1 0 1 C0 0.67 0 0.34 0 0 Z " fill="#13733B" transform="translate(560,90)"/>
<path d="M0 0 C0.99 0.33 1.98 0.66 3 1 C2.38348417 2.6490302 1.75652258 4.29415841 1.125 5.9375 C0.77695312 6.85402344 0.42890625 7.77054688 0.0703125 8.71484375 C-1 11 -1 11 -3 12 C-2.01 8.04 -1.02 4.08 0 0 Z " fill="#E6EFEB" transform="translate(456,636)"/>
<path d="M0 0 C1.2684375 0.3403125 1.2684375 0.3403125 2.5625 0.6875 C3.325625 0.873125 4.08875 1.05875 4.875 1.25 C5.7103125 1.4665625 5.7103125 1.4665625 6.5625 1.6875 C6.5625 2.3475 6.5625 3.0075 6.5625 3.6875 C0.6225 2.6975 0.6225 2.6975 -5.4375 1.6875 C-2.4375 -0.3125 -2.4375 -0.3125 0 0 Z " fill="#E2ECE8" transform="translate(611.4375,95.3125)"/>
<path d="M0 0 C0.66 0.33 1.32 0.66 2 1 C1.1875 2.9375 1.1875 2.9375 0 5 C-0.99 5.33 -1.98 5.66 -3 6 C-3 6.66 -3 7.32 -3 8 C-3.66 7.67 -4.32 7.34 -5 7 C-3.35 4.69 -1.7 2.38 0 0 Z " fill="#167740" transform="translate(164,262)"/>
<path d="M0 0 C0 0.99 0 1.98 0 3 C-1.8125 4.75 -1.8125 4.75 -4 6 C-4.99 5.67 -5.98 5.34 -7 5 C-4.69 3.35 -2.38 1.7 0 0 Z " fill="#15743D" transform="translate(275,155)"/>
</svg>
